<?xml version="1.0" standalone="no"?>
<!DOCTYPE svg PUBLIC "-//W3C//DTD SVG 20010904//EN"
 "http://www.w3.org/TR/2001/REC-SVG-20010904/DTD/svg10.dtd">
<svg version="1.0" xmlns="http://www.w3.org/2000/svg"
 width="512.000000pt" height="512.000000pt" viewBox="0 0 512.000000 512.000000"
 preserveAspectRatio="xMidYMid meet">

<g transform="translate(0.000000,512.000000) scale(0.100000,-0.100000)"
fill="#000000" stroke="none">
<path d="M203 5101 c-100 -34 -171 -114 -193 -215 -8 -36 -10 -710 -8 -2356
l3 -2305 21 -46 c31 -66 78 -114 142 -146 l57 -28 1265 -3 c939 -2 1272 1
1293 9 60 25 57 -35 57 1021 0 728 -3 974 -12 993 -23 52 -43 55 -343 55
l-275 0 0 285 0 285 284 0 285 0 28 24 28 24 6 419 c7 468 9 485 80 629 96
196 269 337 486 396 72 20 104 21 418 22 l340 1 3 -282 2 -283 -292 0 c-171 0
-309 -4 -330 -10 -50 -14 -97 -55 -119 -105 -17 -36 -19 -72 -19 -398 0 -373
1 -385 44 -419 19 -16 54 -18 359 -18 187 0 337 -4 337 -9 0 -5 -16 -127 -35
-272 -19 -145 -35 -269 -35 -276 0 -9 -75 -13 -305 -15 l-305 -3 -27 -28 -28
-27 0 -981 0 -981 33 -29 32 -29 181 0 c196 0 225 6 247 55 16 34 15 60 -2 94
-22 42 -55 51 -181 51 l-115 0 0 840 0 840 293 0 c313 0 321 1 348 52 6 12 35
202 64 422 46 353 51 405 40 433 -26 61 -38 63 -410 63 l-335 0 0 275 0 275
349 0 348 0 25 25 c14 14 28 39 32 56 11 54 7 771 -5 812 -19 71 -21 72 -399
75 -378 4 -521 -6 -643 -44 -201 -63 -392 -202 -508 -370 -49 -72 -116 -222
-140 -314 -20 -77 -22 -117 -26 -437 l-5 -352 -285 -3 -285 -3 -29 -33 -30
-33 3 -425 3 -426 28 -24 28 -24 285 0 284 0 0 -840 0 -840 -1180 0 c-1283 0
-1222 -3 -1248 55 -9 20 -12 560 -12 2306 0 2481 -4 2320 55 2347 15 7 74 12
145 12 131 0 164 9 186 51 27 52 8 115 -41 137 -43 20 -279 15 -342 -7z"/>
<path d="M851 5106 c-87 -48 -50 -186 49 -186 51 0 100 49 100 99 0 75 -83
124 -149 87z"/>
<path d="M1251 5106 c-67 -37 -65 -143 4 -174 20 -9 447 -12 1805 -12 1358 0
1785 -3 1805 -12 59 -27 55 134 55 -2348 0 -2482 4 -2321 -55 -2348 -15 -7
-74 -12 -146 -12 -132 0 -167 -10 -187 -55 -16 -34 -15 -60 3 -94 23 -46 57
-53 217 -49 133 3 147 5 200 31 64 32 111 80 142 146 l21 46 0 2335 0 2335
-28 57 c-32 64 -80 111 -146 142 l-46 21 -1810 2 c-1491 2 -1814 0 -1834 -11z"/>
<path d="M4171 186 c-87 -48 -50 -186 49 -186 51 0 100 49 100 99 0 75 -83
124 -149 87z"/>
</g>
</svg>
