<?xml version="1.0" standalone="no"?>
<!DOCTYPE svg PUBLIC "-//W3C//DTD SVG 20010904//EN"
 "http://www.w3.org/TR/2001/REC-SVG-20010904/DTD/svg10.dtd">
<svg version="1.0" xmlns="http://www.w3.org/2000/svg"
 width="512.000000pt" height="512.000000pt" viewBox="0 0 512.000000 512.000000"
 preserveAspectRatio="xMidYMid meet">

<g transform="translate(0.000000,512.000000) scale(0.100000,-0.100000)"
fill="#000000" stroke="none">
<path d="M1132 5109 c-487 -63 -914 -416 -1066 -881 -65 -199 -61 -97 -61
-1668 0 -1352 1 -1429 19 -1510 59 -270 167 -471 356 -661 189 -191 400 -306
672 -366 78 -17 167 -18 1508 -18 1574 0 1471 -4 1670 62 382 128 691 436 820
819 69 204 65 95 65 1674 0 1352 -1 1429 -19 1510 -58 267 -173 480 -360 666
-183 183 -378 291 -646 357 -82 20 -113 21 -914 24 -626 3 -837 1 -858 -8 -31
-13 -58 -54 -58 -89 0 -34 27 -76 57 -88 20 -8 271 -13 848 -15 893 -4 855 -1
1025 -63 162 -58 288 -139 415 -269 171 -175 273 -385 305 -629 7 -55 10 -521
7 -1451 -4 -1519 2 -1403 -70 -1595 -130 -345 -434 -605 -805 -688 -71 -16
-188 -17 -1482 -17 -1294 0 -1411 1 -1482 17 -432 96 -760 424 -856 856 -16
71 -17 188 -17 1477 0 1155 2 1412 14 1470 16 82 63 219 99 290 113 225 335
429 566 521 164 66 271 84 519 84 194 0 223 7 245 55 23 51 7 107 -39 131 -22
11 -72 14 -221 13 -106 -1 -221 -5 -256 -10z"/>
<path d="M1911 5106 c-87 -48 -50 -186 49 -186 51 0 100 49 100 99 0 75 -83
124 -149 87z"/>
<path d="M1120 4701 c-339 -72 -603 -324 -692 -661 l-23 -85 0 -1395 0 -1395
23 -85 c85 -320 325 -562 647 -652 79 -22 86 -23 889 -26 606 -2 817 0 838 9
49 20 70 81 46 134 -26 57 -1 55 -838 55 -876 0 -860 -1 -1020 77 -79 38 -109
60 -181 132 -71 71 -94 102 -133 181 -80 163 -76 81 -76 1570 0 1489 -4 1407
76 1570 39 79 62 110 133 181 71 71 102 94 181 133 163 80 81 76 1570 76 1418
0 1399 1 1522 -51 157 -67 288 -190 362 -341 80 -164 76 -79 76 -1568 0 -1490
4 -1403 -77 -1570 -38 -79 -60 -109 -132 -181 -72 -72 -102 -94 -181 -132
-128 -63 -207 -77 -420 -77 -187 0 -216 -7 -238 -55 -16 -34 -15 -60 3 -94 25
-49 54 -54 282 -48 171 3 222 8 288 26 318 85 562 331 647 651 l23 85 0 1395
0 1395 -23 85 c-85 320 -324 561 -647 652 l-80 23 -1380 2 c-1297 2 -1385 1
-1465 -16z"/>
<path d="M3726 4210 c-63 -16 -153 -70 -197 -117 -22 -24 -55 -74 -72 -111
-29 -61 -32 -76 -32 -163 0 -90 2 -99 37 -171 45 -91 103 -147 196 -191 61
-29 76 -32 162 -32 86 0 101 3 162 32 93 44 151 100 196 191 35 72 37 81 37
172 0 91 -2 100 -37 172 -68 136 -188 217 -336 224 -42 2 -94 -1 -116 -6z
m204 -224 c59 -39 85 -89 85 -166 0 -78 -26 -127 -88 -168 -56 -37 -153 -39
-210 -3 -76 47 -111 140 -88 229 14 51 75 117 123 131 53 16 135 6 178 -23z"/>
<path d="M2406 3650 c-237 -38 -443 -140 -611 -305 -166 -162 -272 -356 -316
-580 -20 -99 -18 -330 4 -427 93 -430 425 -762 855 -855 97 -22 328 -24 427
-4 224 44 418 150 580 316 420 431 420 1099 0 1530 -158 162 -341 264 -560
311 -85 19 -298 26 -379 14z m379 -220 c313 -81 560 -328 646 -645 18 -65 22
-107 22 -225 0 -118 -4 -160 -22 -225 -86 -317 -329 -561 -646 -646 -105 -29
-325 -32 -428 -6 -328 82 -580 328 -668 652 -32 115 -32 335 0 450 92 341 366
595 709 660 104 20 282 13 387 -15z"/>
<path d="M2415 3244 c-40 -7 -111 -34 -165 -60 -79 -39 -110 -62 -181 -133
-71 -71 -94 -102 -133 -181 -101 -206 -101 -414 0 -620 39 -79 62 -110 133
-181 72 -72 102 -94 181 -132 288 -140 598 -84 818 147 118 125 192 307 192
476 0 169 -74 351 -192 476 -174 183 -406 257 -653 208z m247 -195 c227 -47
398 -259 398 -492 0 -226 -175 -439 -398 -486 -306 -64 -602 177 -602 489 0
225 164 433 383 486 66 16 152 17 219 3z"/>
<path d="M3111 586 c-87 -48 -50 -186 49 -186 51 0 100 49 100 99 0 75 -83
124 -149 87z"/>
</g>
</svg>
