<?xml version="1.0" standalone="no"?>
<!DOCTYPE svg PUBLIC "-//W3C//DTD SVG 20010904//EN"
 "http://www.w3.org/TR/2001/REC-SVG-20010904/DTD/svg10.dtd">
<svg version="1.0" xmlns="http://www.w3.org/2000/svg"
 width="512.000000pt" height="512.000000pt" viewBox="0 0 512.000000 512.000000"
 preserveAspectRatio="xMidYMid meet">

<g transform="translate(0.000000,512.000000) scale(0.100000,-0.100000)"
fill="#000000" stroke="none">
<path d="M287 5109 c-103 -24 -206 -111 -254 -214 l-28 -60 0 -2275 0 -2275
28 -60 c37 -79 114 -156 191 -192 l61 -28 1341 -3 1341 -2 26 21 c35 27 37 76
4 107 l-23 22 -1315 0 c-896 0 -1326 3 -1352 11 -53 14 -132 93 -146 144 -16
57 -15 4454 0 4510 15 53 91 129 144 144 26 7 182 11 453 11 l413 0 24 25 c32
31 32 69 0 100 l-24 25 -423 -1 c-233 -1 -440 -5 -461 -10z"/>
<path d="M1467 5099 c-34 -26 -37 -77 -6 -105 21 -18 67 -19 1689 -24 l1668
-5 43 -30 c24 -17 57 -50 74 -74 l30 -43 3 -2231 c2 -1745 0 -2242 -10 -2277
-15 -58 -87 -131 -144 -148 -31 -9 -230 -12 -793 -12 l-752 0 -24 -25 c-32
-31 -32 -69 0 -101 l25 -25 782 3 783 3 61 28 c77 36 154 113 191 192 l28 60
0 2275 0 2275 -28 61 c-36 77 -113 154 -192 191 l-60 28 -1671 3 -1671 2 -26
-21z"/>
<path d="M1365 4216 c-144 -36 -245 -135 -281 -276 -59 -231 108 -456 348
-468 122 -6 212 31 296 122 170 184 117 478 -106 590 -50 25 -135 47 -180 45
-15 0 -49 -6 -77 -13z m149 -150 c66 -20 110 -57 140 -118 43 -86 31 -175 -33
-249 -45 -53 -101 -79 -171 -79 -71 0 -126 26 -172 79 -108 127 -53 317 105
367 55 17 75 17 131 0z"/>
<path d="M2345 3324 c-11 -3 -30 -7 -43 -10 -36 -7 -101 -72 -112 -112 -6 -23
-10 -269 -10 -658 0 -613 0 -622 21 -648 26 -33 81 -36 107 -6 16 19 17 71 22
648 l5 627 233 3 232 2 0 -90 c0 -54 6 -104 14 -124 28 -67 104 -100 167 -73
19 8 86 60 149 116 71 63 140 114 180 134 61 30 70 32 180 32 107 0 119 -2
175 -29 77 -38 163 -124 201 -201 l29 -60 0 -915 0 -915 -220 -3 c-198 -2
-221 -1 -232 15 -10 13 -13 175 -13 732 l0 716 -29 60 c-118 246 -458 238
-575 -14 -21 -45 -21 -57 -26 -776 l-5 -730 -219 -3 c-153 -2 -223 1 -232 9
-11 9 -14 66 -14 293 0 282 0 283 -23 304 -31 29 -72 28 -103 -3 l-25 -25 3
-303 c3 -295 4 -303 26 -339 13 -20 40 -47 60 -60 35 -22 47 -23 274 -26 256
-4 297 2 349 45 61 52 59 26 59 805 0 670 2 715 19 753 44 96 149 129 239 75
71 -43 66 7 72 -810 5 -808 2 -761 67 -821 47 -44 80 -49 325 -49 244 0 275 5
326 53 54 50 52 5 52 988 0 1005 2 969 -63 1094 -18 34 -62 91 -102 130 -117
118 -234 165 -405 165 -164 0 -268 -47 -437 -197 -45 -40 -84 -73 -87 -73 -4
0 -6 33 -6 73 0 88 -19 129 -79 172 l-43 30 -231 2 c-128 1 -241 -1 -252 -3z"/>
<path d="M1149 3297 c-18 -12 -44 -38 -56 -56 l-23 -34 0 -1094 c0 -1180 -3
-1119 52 -1170 51 -48 82 -53 326 -53 245 0 278 5 325 49 66 61 62 -19 65
1116 2 567 0 1058 -3 1092 -7 71 -32 115 -84 150 -33 23 -40 23 -301 23 -261
0 -268 0 -301 -23z m535 -143 c3 -9 6 -480 6 -1048 0 -811 -3 -1036 -13 -1049
-11 -16 -34 -17 -232 -15 l-220 3 -3 1063 -2 1062 229 0 c199 0 230 -2 235
-16z"/>
</g>
</svg>
