<?xml version="1.0" standalone="no"?>
<!DOCTYPE svg PUBLIC "-//W3C//DTD SVG 20010904//EN"
 "http://www.w3.org/TR/2001/REC-SVG-20010904/DTD/svg10.dtd">
<svg version="1.0" xmlns="http://www.w3.org/2000/svg"
 width="512.000000pt" height="512.000000pt" viewBox="0 0 512.000000 512.000000"
 preserveAspectRatio="xMidYMid meet">

<g transform="translate(0.000000,512.000000) scale(0.100000,-0.100000)"
fill="#000000" stroke="none">
<path d="M2608 5071 l-33 -29 -5 -1774 -5 -1773 -22 -65 c-82 -239 -277 -398
-532 -431 -117 -16 -229 4 -350 63 -156 75 -283 232 -326 403 -20 78 -19 231
1 309 41 160 177 327 325 399 137 67 285 83 431 48 93 -22 120 -18 153 21 l25
30 0 440 0 440 -28 28 c-37 37 -97 45 -317 44 -176 0 -269 -12 -425 -54 -104
-29 -134 -57 -127 -118 5 -47 36 -89 71 -94 11 -2 70 9 130 24 137 34 273 50
396 46 l95 -3 3 -295 2 -295 -132 0 c-158 -1 -244 -21 -377 -90 -211 -109
-360 -297 -422 -530 -29 -109 -29 -288 -1 -396 69 -259 259 -475 501 -568 112
-43 182 -55 311 -54 372 3 679 237 792 604 l23 74 3 1713 2 1712 298 0 298 0
16 -102 c46 -290 178 -539 393 -747 210 -202 463 -326 736 -363 l89 -12 0
-298 c0 -164 -2 -298 -5 -298 -44 0 -226 27 -314 46 -238 53 -450 145 -665
288 -145 97 -167 102 -218 57 l-33 -29 0 -979 c0 -753 -3 -996 -13 -1056 -16
-93 -50 -218 -86 -311 -33 -87 -34 -129 -2 -161 34 -34 71 -41 113 -21 41 20
76 89 121 243 66 219 65 216 63 1181 l-3 873 39 -24 c60 -38 234 -123 321
-158 171 -68 384 -119 581 -139 202 -20 264 -11 289 45 19 41 17 834 -2 880
-20 47 -44 56 -170 66 -367 28 -683 220 -881 534 -95 152 -146 302 -165 493
-15 147 -16 150 -53 172 -30 19 -52 20 -454 20 l-423 0 -32 -29z"/>
<path d="M1049 2965 c-57 -31 -61 -114 -7 -160 47 -40 116 -28 144 26 18 37
18 65 -3 99 -28 48 -83 63 -134 35z"/>
<path d="M700 2652 c-105 -109 -237 -343 -299 -530 -62 -185 -75 -275 -76
-507 0 -183 3 -224 23 -319 141 -655 648 -1149 1307 -1272 151 -29 441 -26
593 4 201 40 404 121 565 224 80 52 104 90 87 142 -28 85 -98 94 -200 27 -133
-87 -298 -153 -484 -193 -135 -29 -397 -31 -531 -4 -444 88 -807 356 -1010
748 -101 196 -143 359 -152 588 -4 120 -2 180 12 265 35 225 132 456 266 635
39 52 76 105 82 117 24 54 -29 123 -96 123 -35 0 -47 -6 -87 -48z"/>
<path d="M3051 725 c-42 -48 -42 -95 -2 -136 52 -52 137 -34 166 35 29 68 -17
136 -90 136 -37 0 -48 -5 -74 -35z"/>
</g>
</svg>
