<svg width="2494" height="234" viewBox="0 0 2494 234" fill="none" xmlns="http://www.w3.org/2000/svg">
<path d="M2494 233.835H0V46.1432C0 -6.112 40.5 0.727139 124.5 64.0809C208.5 127.435 368.659 5.29668 435 46.1432C537 108.945 537 74.2382 592 28.2053C647 -17.8275 748.464 -8.6407 820.013 64.081C891.561 136.803 1001.26 15.4733 1110.58 46.1432C1219.89 76.813 1213.54 -9.75488 1351.45 46.1432C1489.36 102.041 1579.72 -38.2874 1762.85 46.1432C1945.99 130.574 1995.2 -64.5472 2073.36 46.1432C2151.52 156.833 2265.2 -11.1706 2340.52 46.1432C2415.84 103.457 2494 46.1432 2494 46.1432V233.835Z" fill="#B8FFEA" fill-opacity="0.27"/>
</svg>
