<svg width="2494" height="234" viewBox="0 0 2494 234" fill="none" xmlns="http://www.w3.org/2000/svg">
<path d="M0 233.835H2494V46.1432C2494 -6.112 2453.5 0.727139 2369.5 64.0809C2285.5 127.435 2125.34 5.29668 2059 46.1432C1957 108.945 1957 74.2382 1902 28.2053C1847 -17.8275 1745.54 -8.6407 1673.99 64.081C1602.44 136.803 1492.73 15.4733 1383.42 46.1432C1274.11 76.813 1280.46 -9.75488 1142.55 46.1432C1004.64 102.041 914.282 -38.2874 731.147 46.1432C548.011 130.574 498.8 -64.5472 420.641 46.1432C342.481 156.833 228.795 -11.1706 153.477 46.1432C78.1594 103.457 0 46.1432 0 46.1432V233.835Z" fill="#F5C0D6" fill-opacity="0.34"/>
</svg>
