<?xml version="1.0" standalone="no"?>
<!DOCTYPE svg PUBLIC "-//W3C//DTD SVG 20010904//EN"
 "http://www.w3.org/TR/2001/REC-SVG-20010904/DTD/svg10.dtd">
<svg version="1.0" xmlns="http://www.w3.org/2000/svg"
 width="512.000000pt" height="512.000000pt" viewBox="0 0 512.000000 512.000000"
 preserveAspectRatio="xMidYMid meet">

<g transform="translate(0.000000,512.000000) scale(0.100000,-0.100000)"
fill="#000000" stroke="none">
<path d="M2305 4539 c-200 -26 -426 -94 -621 -189 -145 -70 -184 -100 -184
-141 0 -33 38 -79 66 -79 9 0 70 27 136 61 115 58 262 119 322 133 27 7 25 3
-29 -56 -100 -110 -230 -323 -299 -490 l-15 -38 -265 0 c-147 0 -266 3 -266 6
0 4 50 57 110 119 62 63 110 121 110 132 0 45 -59 90 -100 75 -29 -11 -192
-173 -262 -261 -132 -165 -239 -350 -307 -532 l-40 -104 -311 -5 -312 -5 -19
-24 c-18 -22 -19 -47 -19 -581 0 -534 1 -559 19 -581 l19 -24 312 -5 312 -5
29 -80 c148 -406 462 -784 844 -1015 237 -143 515 -237 799 -271 127 -15 452
-6 566 15 431 81 784 268 1080 572 211 217 355 441 450 704 l28 75 312 5 312
5 19 24 c18 22 19 47 19 583 l0 559 -25 24 c-23 24 -30 25 -149 25 -68 0 -132
-3 -141 -6 -26 -10 -45 -63 -34 -93 16 -41 38 -50 122 -51 l77 0 0 -460 0
-460 -460 0 -460 0 0 460 0 460 229 0 c216 0 230 1 255 21 53 42 27 117 -45
129 -28 5 -34 12 -59 80 -94 260 -239 486 -445 699 -323 333 -725 533 -1185
590 -99 13 -395 12 -495 0z m175 -469 l0 -330 -316 0 -315 0 6 23 c12 40 106
210 159 287 65 94 195 225 271 270 44 26 167 77 193 80 1 0 2 -148 2 -330z
m310 275 c112 -57 233 -172 328 -312 44 -65 136 -235 147 -270 l6 -23 -315 0
-316 0 0 329 0 330 53 -16 c28 -8 72 -26 97 -38z m420 -62 c170 -62 365 -175
512 -294 77 -63 202 -184 229 -221 l20 -28 -266 0 -266 0 -15 38 c-70 167
-199 380 -300 491 -65 72 -69 71 86 14z m-1590 -701 c0 -5 -18 -78 -39 -163
-22 -85 -42 -175 -46 -201 l-7 -48 -354 0 c-195 0 -354 1 -354 3 0 26 125 284
176 365 l34 52 295 0 c162 0 295 -4 295 -8z m860 -202 l0 -210 -400 0 c-220 0
-400 3 -400 6 0 37 90 378 107 407 2 4 159 7 349 7 l344 0 0 -210z m872 150
c17 -49 66 -244 83 -327 l7 -33 -401 0 -401 0 0 210 0 210 347 -2 346 -3 19
-55z m773 5 c53 -83 175 -335 175 -362 0 -2 -159 -3 -354 -3 l-354 0 -7 48
c-4 26 -24 116 -46 201 -21 85 -39 158 -39 163 0 4 133 8 295 8 l294 0 36 -55z
m-225 -975 l0 -460 -1336 0 c-836 0 -1342 -4 -1353 -10 -10 -5 -24 -22 -30
-39 -10 -24 -10 -34 3 -59 8 -16 23 -32 31 -36 9 -3 83 -6 165 -6 l148 0 7
-47 c4 -27 24 -117 46 -202 21 -85 39 -158 39 -163 0 -4 -133 -8 -295 -8
l-294 0 -36 55 c-53 83 -175 335 -175 362 0 2 23 3 52 3 39 0 57 5 75 22 33
30 31 80 -3 107 -26 20 -37 21 -410 21 l-384 0 0 460 0 460 1875 0 1875 0 0
-460z m-1420 -820 l0 -210 -347 2 -346 3 -19 55 c-17 49 -66 244 -83 328 l-7
32 401 0 401 0 0 -210z m955 178 c-17 -84 -66 -279 -83 -328 l-19 -55 -346 -3
-347 -2 0 210 0 210 401 0 401 0 -7 -32z m865 29 c0 -27 -122 -279 -175 -362
l-36 -55 -294 0 c-162 0 -295 4 -295 8 0 5 18 78 39 163 22 85 42 175 46 202
l7 47 354 0 c195 0 354 -1 354 -3z m-2604 -604 c69 -167 199 -381 299 -490 31
-35 54 -63 52 -63 -3 0 -45 14 -94 31 -181 64 -350 155 -511 276 -84 64 -242
210 -273 255 l-20 28 266 0 266 0 15 -37z m784 -292 l0 -330 -52 15 c-154 46
-306 173 -435 364 -37 54 -128 226 -138 258 l-6 22 315 0 316 0 0 -329z m785
307 c-10 -32 -101 -204 -138 -258 -129 -191 -281 -318 -434 -364 l-53 -15 0
330 0 329 316 0 315 0 -6 -22z m677 -15 c-154 -192 -468 -409 -732 -506 -155
-57 -151 -58 -86 14 101 111 230 324 300 492 l15 37 266 0 267 0 -30 -37z"/>
<path d="M4424 2841 c-55 -14 -117 -55 -150 -98 -89 -117 -54 -293 74 -369 67
-41 121 -49 196 -29 l59 15 48 -45 c26 -25 58 -45 69 -45 12 0 35 14 52 30 38
39 33 69 -23 126 l-40 40 16 60 c19 75 7 144 -38 211 -55 79 -174 127 -263
104z m101 -156 c63 -31 79 -114 30 -165 -54 -56 -137 -42 -171 28 -24 51 -4
109 46 134 43 22 53 22 95 3z"/>
</g>
</svg>
