<?xml version="1.0" standalone="no"?>
<!DOCTYPE svg PUBLIC "-//W3C//DTD SVG 20010904//EN"
 "http://www.w3.org/TR/2001/REC-SVG-20010904/DTD/svg10.dtd">
<svg version="1.0" xmlns="http://www.w3.org/2000/svg"
 width="64.000000pt" height="64.000000pt" viewBox="0 0 64.000000 64.000000"
 preserveAspectRatio="xMidYMid meet">

<g transform="translate(0.000000,64.000000) scale(0.100000,-0.100000)"
fill="#000000" stroke="none">
<path d="M61 591 c-10 -7 -13 -29 -12 -88 3 -106 26 -212 66 -306 l33 -77 -49
0 c-57 0 -63 -13 -23 -51 24 -23 33 -24 177 -27 83 -2 166 -1 185 3 35 6 86
51 76 66 -3 5 -27 9 -54 9 l-48 0 26 60 c26 58 28 60 86 77 69 21 102 56 92
97 -10 39 -42 66 -77 66 l-30 0 2 81 c1 60 -2 83 -12 90 -18 11 -420 11 -438
0z m439 -73 c0 -118 -36 -280 -67 -305 -8 -6 -12 -16 -9 -22 4 -6 0 -24 -9
-41 l-16 -30 -119 0 -119 0 -16 30 c-9 17 -13 35 -9 41 3 6 -1 16 -9 22 -28
23 -67 184 -67 279 l0 48 165 0 c103 0 165 4 165 10 0 6 -62 10 -165 10 -103
0 -165 4 -165 10 0 6 80 10 220 10 l220 0 0 -62z m70 -118 c28 -15 41 -46 34
-76 -7 -28 -69 -63 -110 -64 -21 0 -21 0 -5 68 19 83 35 97 81 72z m-85 -320
c-17 -19 -31 -20 -197 -20 -170 0 -218 7 -218 30 0 6 84 10 217 10 215 0 216
0 198 -20z"/>
<path d="M430 550 c0 -5 9 -10 20 -10 11 0 20 5 20 10 0 6 -9 10 -20 10 -11 0
-20 -4 -20 -10z"/>
<path d="M170 200 c0 -5 5 -10 10 -10 6 0 10 5 10 10 0 6 -4 10 -10 10 -5 0
-10 -4 -10 -10z"/>
<path d="M220 200 c0 -5 5 -10 10 -10 6 0 10 5 10 10 0 6 -4 10 -10 10 -5 0
-10 -4 -10 -10z"/>
<path d="M270 200 c0 -5 5 -10 10 -10 6 0 10 5 10 10 0 6 -4 10 -10 10 -5 0
-10 -4 -10 -10z"/>
<path d="M320 200 c0 -5 5 -10 10 -10 6 0 10 5 10 10 0 6 -4 10 -10 10 -5 0
-10 -4 -10 -10z"/>
<path d="M370 200 c0 -5 5 -10 10 -10 6 0 10 5 10 10 0 6 -4 10 -10 10 -5 0
-10 -4 -10 -10z"/>
</g>
</svg>
